<svg width="30" height="30" viewBox="0 0 30 30" fill="none" xmlns="http://www.w3.org/2000/svg">
    <path d="M23.0961 21.5688L15 29.2176L6.90393 21.5688H23.0961Z" fill="#1F005E" stroke="#1F005E"
        stroke-width="1.13752" />
    <circle cx="15" cy="13" r="12.0413" fill="url(#paint0_linear_10144_3731)" stroke="#1F005E" stroke-width="1.91738" />
    <path
        d="M14.006 5.24841L11.2318 12.3375C11.0548 12.79 10.8777 13.0406 11.1138 13.4508C11.3027 13.7788 11.704 13.7828 11.8811 13.7437L14.1831 13.275C14.7969 13.1344 14.8323 13.4508 14.8323 13.6851C14.7536 15.3841 14.4782 18.9517 14.4782 19.661C14.4782 20.0667 14.5756 20.5391 15.0727 20.5939C15.6039 20.6525 15.8357 20.2469 15.9538 19.8368L18.846 11.2244C19.023 10.58 19.0778 10.2915 18.846 10.0527C18.6141 9.81388 18.2361 9.81834 18.0196 9.87693L16.1899 10.287C15.5288 10.4745 15.4226 10.1699 15.4226 9.81834L15.4816 5.4242C15.4816 5.07267 15.3635 4.66266 14.8323 4.60395C14.3537 4.55105 14.0847 4.99453 14.006 5.24841Z"
        fill="#F9F3FF" />
    <defs>
        <linearGradient id="paint0_linear_10144_3731" x1="14.6998" y1="2.23695" x2="14.6998" y2="23.3281"
            gradientUnits="userSpaceOnUse">
            <stop stop-color="#991DFF" />
            <stop offset="1" stop-color="#8E03FF" />
        </linearGradient>
    </defs>
</svg>